<svg xmlns="http://www.w3.org/2000/svg" viewBox="0 0 133.32 123.98"><defs><style>.cls-1{fill:#fff;}</style></defs><g id="Capa_2" data-name="Capa 2"><g id="Capa_4" data-name="Capa 4"><path class="cls-1" d="M60.54,50.59H25.46l-.37,13.6a23.11,23.11,0,0,1,7.86-1c17.85,0,30.58,11.11,30.58,29.21,0,20-14.35,31.58-33.7,31.58-15.23,0-26-7.61-29.83-22.59L19.6,96.9c1,6.36,5.61,10.61,12.11,10.61,8,0,13.1-5.62,13.1-13.23,0-11.61-10.61-14.61-20.35-14.61A57.82,57.82,0,0,0,6.12,82.92l1-48.81H60.54Z"/><rect class="cls-1" x="95.25" width="12.69" height="63.45"/><rect class="cls-1" x="95.25" width="12.69" height="63.45" transform="translate(133.32 -69.87) rotate(90)"/></g></g></svg>