<svg xmlns="http://www.w3.org/2000/svg" viewBox="0 0 82.61 79.78"><defs><style>.cls-1{fill:#fff;}</style></defs><g id="Capa_2" data-name="Capa 2"><g id="Capa_3" data-name="Capa 3"><path class="cls-1" d="M73.66,9.8c0-3.35-1.86-5.2-5.22-5.22H64.57C63.41,1.1,62-.18,59.45,0c-2.28.19-3.84,1.83-4.25,4.56H50.82c-.35,0-.7,0-1,0-.5,0-.7-.13-.77-.66A4.54,4.54,0,0,0,44.52,0,4.6,4.6,0,0,0,40,4c0,.23-.32.6-.5.6-1.87,0-3.75,0-5.6,0-.68-3-2.23-4.53-4.59-4.58s-4,1.37-4.79,4.52h-6A4.43,4.43,0,0,0,16.38.84,6,6,0,0,0,13.61.05c-2.32,0-3.79,1.52-4.5,4.53-1,0-2.11.06-3.18,0C3,4.39.92,5.42,0,8.35v65.7a2,2,0,0,0,2.05,1.13c1.33,0,2.65,0,4.07,0,0,0,3.12,0,3.12,0h1q15.42,0,30.82,0c.15,0,4.59,0,4.72,0-.6-1.06-1.2-2-1.86-3.1H3.12V20h67.4V39.26l3.13,1.46V35.17Q73.68,22.48,73.66,9.8ZM58.35,4.5a1.41,1.41,0,0,1,1.56-1.4,1.46,1.46,0,0,1,1.44,1.53c0,1.48,0,3,0,4.5h-3C58.33,7.56,58.28,6,58.35,4.5ZM43,4.4a1.39,1.39,0,0,1,1.55-1.3A1.45,1.45,0,0,1,46,4.54c.06,1.52,0,3,0,4.62H43C43,7.55,42.94,6,43,4.4Zm-15.37.1A1.42,1.42,0,0,1,29,3.1a1.36,1.36,0,0,1,1.57,1.27c.08,1.58,0,3.17,0,4.79h-3C27.64,7.56,27.61,6,27.65,4.5ZM12.39,4.18a1.33,1.33,0,0,1,1.55-1.07,1.34,1.34,0,0,1,1.35,1.32c.05,1.55,0,3.11,0,4.74H12.36C12.36,7.49,12.3,5.83,12.39,4.18ZM70.56,16.81H3.16a5,5,0,0,1-.07-.56c0-2.23,0-4.46,0-6.69,0-1.35.55-1.89,1.9-1.9H9.21c0,1,0,1.82,0,2.68,0,1.35.54,1.9,1.89,1.92,1.83,0,3.65,0,5.48,0,1.29,0,1.82-.6,1.84-1.89,0-.87,0-1.73,0-2.66h6.12c0,.87,0,1.72,0,2.58,0,1.4.56,2,1.94,2,1.8,0,3.6,0,5.39,0,1.35,0,1.86-.57,1.87-1.93,0-.86,0-1.72,0-2.63H39.9c0,.89,0,1.75,0,2.61,0,1.42.53,1.94,2,1.95,1.77,0,3.54,0,5.3,0,1.41,0,1.93-.54,2-2,0-.84,0-1.67,0-2.58h6.15v2.63c0,1.35.53,1.89,1.9,1.91,1.79,0,3.59,0,5.38,0,1.38,0,1.91-.59,1.93-2,0-.78,0-1.57,0-2.35,0,0,0-.1.09-.24,1.52,0,3.08,0,4.63,0a1.37,1.37,0,0,1,1.36,1.44C70.59,11.68,70.56,14.22,70.56,16.81Z"/><path class="cls-1" d="M13.56,59.81A4.6,4.6,0,0,1,9,55.25a4.6,4.6,0,1,1,9.19,0A4.6,4.6,0,0,1,13.56,59.81Zm1.49-4.57a1.5,1.5,0,1,0-3,0,1.5,1.5,0,1,0,3,0Z"/><path class="cls-1" d="M13.51,35.28a4.6,4.6,0,1,1,4.64-4.54A4.63,4.63,0,0,1,13.51,35.28Zm1.55-4.61a1.51,1.51,0,1,0-1.54,1.51A1.5,1.5,0,0,0,15.06,30.67Z"/><path class="cls-1" d="M33.48,30.7a4.61,4.61,0,0,1-4.59,4.58,4.6,4.6,0,1,1,.05-9.2A4.61,4.61,0,0,1,33.48,30.7Zm-4.55,1.48a1.5,1.5,0,1,0-1.55-1.51A1.51,1.51,0,0,0,28.93,32.18Z"/><path class="cls-1" d="M33.48,55.26a4.6,4.6,0,0,1-9.19,0A4.65,4.65,0,0,1,29,50.63,4.61,4.61,0,0,1,33.48,55.26Zm-3.08,0a1.51,1.51,0,1,0-1.53,1.52A1.51,1.51,0,0,0,30.4,55.21Z"/><path class="cls-1" d="M28.88,38.38a4.55,4.55,0,0,1,4.6,4.53,4.6,4.6,0,1,1-4.6-4.53Zm0,3a1.53,1.53,0,0,0,0,3,1.53,1.53,0,0,0,0-3Z"/><path class="cls-1" d="M13.56,38.38a4.59,4.59,0,0,1,4.59,4.55,4.6,4.6,0,1,1-9.19,0A4.58,4.58,0,0,1,13.56,38.38Zm1.49,4.55a1.5,1.5,0,1,0-1.52,1.55A1.52,1.52,0,0,0,15.05,42.93Z"/><path class="cls-1" d="M39.66,30.69a4.58,4.58,0,1,1,4.57,4.59A4.59,4.59,0,0,1,39.66,30.69Zm4.57,1.49a1.5,1.5,0,1,0,0-3,1.5,1.5,0,1,0,0,3Z"/><path class="cls-1" d="M55,30.69a4.59,4.59,0,1,1,4.58,4.59A4.6,4.6,0,0,1,55,30.69Zm4.57,1.49a1.5,1.5,0,1,0,0-3,1.5,1.5,0,1,0,0,3Z"/><path class="cls-1" d="M82.6,59.8a20,20,0,1,1-20-19.91A20,20,0,0,1,82.6,59.8ZM61.11,76.57V75.19c0-.46,0-.92,0-1.39a1.55,1.55,0,0,1,2.19-1.52,1.69,1.69,0,0,1,.9,1.66c0,.88,0,1.77,0,2.66a16.72,16.72,0,0,0,15-13.69c-.85,0-1.68,0-2.52,0A1.52,1.52,0,0,1,75,61.13c.11-.81.73-1.28,1.77-1.31s1.82,0,2.73,0c0-9.91-8.34-16.52-15.29-16.64,0,.86,0,1.73,0,2.59a1.56,1.56,0,0,1-1.09,1.68,1.52,1.52,0,0,1-2-1.56c0-.91,0-1.84,0-2.76-9.14.53-15.75,9.21-15.19,16.69h2.59c1.17,0,1.83.59,1.83,1.54s-.66,1.52-1.81,1.54c-.78,0-1.55,0-2.34,0C46.9,69,52.8,76,61.11,76.57Z"/><path class="cls-1" d="M63,59.09l5.93-5c.63-.52,1.23-1.06,1.88-1.55a1.53,1.53,0,1,1,2,2.33q-4.51,3.81-9.08,7.56a1.47,1.47,0,0,1-2.33-.32c-1-1.47,0,2.14-3-4.48A1.52,1.52,0,1,1,60.92,56C61.61,57,62.25,58,63,59.09Z"/></g></g></svg>