<svg xmlns="http://www.w3.org/2000/svg" viewBox="0 0 80.17 69.23"><defs><style>.cls-1{fill:#fff;}</style></defs><g id="Capa_2" data-name="Capa 2"><g id="Capa_3" data-name="Capa 3"><path class="cls-1" d="M50.63,63.45c-5.23,0-6.44-.15-11.67-.15-9.78,0-20-.16-29.63-.16-2,0-5.35-2.77-5.8-4.53a34.71,34.71,0,0,1-.29-3.54c0-15.27.34-29.39.34-44.59C3.58,5.87,7.3,3.13,10,3.13c5.33,0,12.09,0,17.42,0,1.44,0,2.93,1.79,3.91,2.85C33.58,8.39,34.7,9.67,37,12.09A8.94,8.94,0,0,0,44.18,15c8,0,15.58.15,23.6.16a9.37,9.37,0,0,1,5.71,2.56,5.87,5.87,0,0,1,1.65,4c.24,9.25.29,12.74.29,19.08l2.48,2.34c0-7.42,0-13.66,0-21.07a11.55,11.55,0,0,0-.24-2.49A9.58,9.58,0,0,0,68,12Q56,12,44.07,12a4.37,4.37,0,0,1-3.43-1.47c-2.25-2.41-4.56-4.77-6.8-7.19A10,10,0,0,0,26.21,0c-5.47,0-11,0-16.43,0A9.27,9.27,0,0,0,1.27,5,7.77,7.77,0,0,0,0,8.5v49a2.3,2.3,0,0,1,.14.42,9.43,9.43,0,0,0,8.66,8c2.7.17,5.42.09,8.13.09H52.48C51.4,64.47,52.05,65.39,50.63,63.45Z"/><path class="cls-1" d="M66.81,69.23c.64-.09,1.28-.16,1.91-.29a13.9,13.9,0,0,0,8.15-5,14.17,14.17,0,0,0,3.21-7.68,14.59,14.59,0,0,0-4.56-12.57,13.27,13.27,0,0,0-7.28-3.63A13.72,13.72,0,0,0,56.47,43.6l-.34.31c0-.16,0-.26,0-.36V39.93a2.2,2.2,0,0,0-.09-.58,1.09,1.09,0,0,0-1.19-.71,1.1,1.1,0,0,0-.93,1.06c0,1.22,0,2.43,0,3.65,0,1,0,2.09,0,3.14a1.14,1.14,0,0,0,.85,1.23l6.46,2.22a1.11,1.11,0,0,0,1.48-.7,1.16,1.16,0,0,0-.79-1.47l-4.83-1.65c.42-.41.79-.8,1.2-1.16a11.72,11.72,0,0,1,6.07-2.78A11.6,11.6,0,0,1,73,44.24a12,12,0,0,1,4.64,6.25,12.47,12.47,0,0,1-1.42,11.14A12,12,0,0,1,59.26,65,12,12,0,0,1,55,59.86,12.44,12.44,0,0,1,54,53.43c0-.3.07-.61.11-.91a1.15,1.15,0,0,0-.89-1.34,1.1,1.1,0,0,0-1.3,1,14.79,14.79,0,0,0,2.19,10.52,13.91,13.91,0,0,0,8.85,6.22c.64.15,1.3.2,2,.3l.2,0Z"/></g></g></svg>