<svg xmlns="http://www.w3.org/2000/svg" viewBox="0 0 80.88 83.64"><defs><style>.cls-1{fill:#fff;}</style></defs><g id="Capa_2" data-name="Capa 2"><g id="Capa_3" data-name="Capa 3"><path class="cls-1" d="M54,0a6.58,6.58,0,0,1,4.36,1.74A9.74,9.74,0,0,1,62.68,10q0,16,0,32.06v1c1.18.3,2.35.55,3.48.9A20.14,20.14,0,0,1,80.78,65.39c-.86,9.43-8.83,17.17-17.48,18-7.24.89-12.78-1.23-17.91-6.36-.57-.57-.57-.47-1.41-.51-11.07,0-22.6,0-33.67,0A9.87,9.87,0,0,1,0,66.28C0,47.72.11,29.15,0,10.59,0,5,3.83.74,8.49.11A.65.65,0,0,0,8.71,0ZM42.79,73.3a20.5,20.5,0,0,1-.06-19.86C46.4,47.55,51.66,43.52,60,43v-.69c0-10.58-.17-19.3-.17-29.88,0-3.46-2.07-9.58-5.53-9.59-14,0-29.93.07-43.89.07C7,3,2.89,6.93,2.89,10.39V66c0,3.43,3.65,7.27,7.06,7.27H42.79Zm.56-10c0,11.09,7.93,17.9,16.39,18,9.45.46,17.8-8,18.69-17.54.37-9.29-8-17.54-18.36-17.54C51.12,46.69,43.35,52.82,43.35,63.32Z"/><path class="cls-1" d="M20,16.19h7.12c1.56,0,2.62.67,2.64,1.66s-1,1.73-2.56,1.74q-7.19,0-14.39,0c-1.54,0-2.58-.75-2.56-1.74s1.08-1.66,2.64-1.66Z"/><path class="cls-1" d="M33.08,16.19H40.2c1.57,0,2.62.67,2.64,1.66s-1,1.73-2.55,1.74q-7.2,0-14.4,0c-1.54,0-2.58-.75-2.56-1.74S24.41,16.2,26,16.2Z"/><path class="cls-1" d="M42.84,16.19H50c1.56,0,2.62.67,2.64,1.66s-1,1.73-2.56,1.74q-7.18,0-14.39,0c-1.54,0-2.58-.75-2.56-1.74s1.07-1.66,2.64-1.66Z"/><path class="cls-1" d="M20,23.82h7.12c1.56,0,2.62.68,2.64,1.67s-1,1.73-2.56,1.74q-7.19,0-14.39,0c-1.54,0-2.58-.75-2.56-1.74s1.08-1.66,2.64-1.67Z"/><path class="cls-1" d="M33.08,23.82H40.2c1.57,0,2.62.68,2.64,1.67s-1,1.73-2.55,1.74q-7.2,0-14.4,0c-1.54,0-2.58-.75-2.56-1.74s1.08-1.66,2.64-1.67Z"/><path class="cls-1" d="M42.84,23.82H50c1.56,0,2.62.68,2.64,1.67s-1,1.73-2.56,1.74q-7.18,0-14.39,0c-1.54,0-2.58-.75-2.56-1.74s1.07-1.66,2.64-1.67Z"/><path class="cls-1" d="M20,32.2h7.12c1.56,0,2.62.68,2.64,1.67s-1,1.73-2.56,1.74q-7.19,0-14.39,0c-1.54,0-2.58-.76-2.56-1.74s1.08-1.66,2.64-1.67Z"/><path class="cls-1" d="M33.08,32.2H40.2c1.57,0,2.62.68,2.64,1.67s-1,1.73-2.55,1.74q-7.2,0-14.4,0c-1.54,0-2.58-.76-2.56-1.74S24.41,32.21,26,32.2Z"/><path class="cls-1" d="M42.84,32.2H50c1.56,0,2.62.68,2.64,1.67s-1,1.73-2.56,1.74q-7.18,0-14.39,0c-1.54,0-2.58-.76-2.56-1.74s1.07-1.66,2.64-1.67Z"/><path class="cls-1" d="M18.73,40.74c2.08,0,4.15,0,6.22,0,1.36,0,2.29.68,2.31,1.66s-.89,1.74-2.24,1.74q-6.28,0-12.56,0c-1.35,0-2.26-.75-2.24-1.73s.94-1.67,2.3-1.67C14.59,40.73,16.66,40.74,18.73,40.74Z"/><path class="cls-1" d="M30.18,40.74c2.07,0,4.14,0,6.22,0,1.36,0,2.29.68,2.31,1.66s-.89,1.74-2.24,1.74q-6.28,0-12.56,0c-1.35,0-2.26-.75-2.24-1.73s.94-1.67,2.3-1.67C26,40.73,28.11,40.74,30.18,40.74Z"/><path class="cls-1" d="M38.7,40.74c2.07,0,4.14,0,6.22,0,1.36,0,2.29.68,2.31,1.66s-.89,1.74-2.24,1.74q-6.29,0-12.56,0c-1.35,0-2.26-.75-2.24-1.73s.94-1.67,2.3-1.67C34.56,40.73,36.63,40.74,38.7,40.74Z"/><path class="cls-1" d="M17.45,49.27h5.22a1.72,1.72,0,1,1,.06,3.41q-5.28,0-10.56,0a1.72,1.72,0,1,1,.05-3.41Z"/><path class="cls-1" d="M27.07,49.27h5.22a1.72,1.72,0,1,1,.07,3.41q-5.3,0-10.57,0a1.72,1.72,0,1,1,.06-3.41Z"/><path class="cls-1" d="M34.23,49.27h5.22a1.72,1.72,0,1,1,.07,3.41c-3.52,0-7.05,0-10.57,0A1.72,1.72,0,1,1,29,49.27Z"/><path class="cls-1" d="M16.64,57.81c1.54,0,3.09,0,4.63,0a1.7,1.7,0,1,1,.06,3.4c-3.12,0-6.25,0-9.37,0a1.7,1.7,0,0,1,0-3.4C13.55,57.8,15.1,57.81,16.64,57.81Z"/><path class="cls-1" d="M25.18,57.81c1.55,0,3.09,0,4.63,0a1.7,1.7,0,1,1,.06,3.4c-3.12,0-6.25,0-9.37,0a1.7,1.7,0,0,1,.05-3.4C22.09,57.8,23.64,57.81,25.18,57.81Z"/><path class="cls-1" d="M31.54,57.81c1.54,0,3.08,0,4.63,0a1.7,1.7,0,0,1,.06,3.4c-3.13,0-6.25,0-9.38,0a1.7,1.7,0,0,1,0-3.4C28.45,57.8,30,57.81,31.54,57.81Z"/><path class="cls-1" d="M58.52,64.89c2.09-2.6,4.09-5.14,6.17-7.63a3.53,3.53,0,0,1,1.65-1.08,2.25,2.25,0,0,1,2.51,1.11,2.47,2.47,0,0,1-.22,2.83c-1.21,1.54-2.45,3.07-3.67,4.6l-3.89,4.84a2.48,2.48,0,0,1-3.79.5c-1.79-1.29-3.58-2.58-5.36-3.89a2.46,2.46,0,1,1,2.89-4C56,63.08,57.24,64,58.52,64.89Z"/></g></g></svg>