<svg xmlns="http://www.w3.org/2000/svg" viewBox="0 0 128.02 108.56"><defs><style>.cls-1{fill:#fff;}</style></defs><g id="Capa_2" data-name="Capa 2"><g id="Capa_4" data-name="Capa 4"><path class="cls-1" d="M0,104.28V102a5.52,5.52,0,0,0,.27-.67q3.24-12.9,6.46-25.79c.94-3.78,2.48-7.5,1.3-11.52a1.14,1.14,0,0,1,0-.37q0-25.51,0-51a13.5,13.5,0,0,1,.43-3.58A11.78,11.78,0,0,1,20.42,0Q64,0,107.58.06a13.77,13.77,0,0,1,5.65,1.25C118,3.55,120,7.6,120,12.74q0,25.44,0,50.89a10,10,0,0,1-.25,2.85,6.83,6.83,0,0,0,.21,3.85c2.64,10.27,5.19,20.57,7.75,30.87a5.84,5.84,0,0,1-.27,4.38c-1.22,2.25-3.19,3-5.63,3q-57.39,0-114.79,0C3.67,108.56,1.18,107.63,0,104.28ZM63.94,65.76h43.52c1.8,0,2.11-.3,2.11-2.09v-51c0-1.8-.39-2.19-2.21-2.19H20.71c-1.88,0-2.24.37-2.24,2.29V63.64c0,1.83.29,2.12,2.09,2.12ZM64,100.15H76.9c1.53,0,1.86-.4,1.59-1.91-.62-3.48-1.3-6.95-1.89-10.43-.18-1.07-.65-1.51-1.72-1.51q-10.87,0-21.74,0a1.46,1.46,0,0,0-1.68,1.4c-.6,3.53-1.28,7-1.91,10.56-.26,1.5.08,1.88,1.62,1.89Z"/><path class="cls-1" d="M66.89,36l4.4,4.34c1.06,1.06,2.14,2.11,3.18,3.19a1.7,1.7,0,0,1,0,2.72c-2.6,2.83-2.81,2.83-5.55.1L63.07,40.5a3.46,3.46,0,0,0-.35-.19,17.59,17.59,0,0,1-.85,2.83,2.86,2.86,0,0,1-1.47,1.42c-.87.25-1.41-.46-1.72-1.28-1.85-4.9-3.75-9.79-5.55-14.71a2.18,2.18,0,0,1,.26-1.91,2.34,2.34,0,0,1,2-.27C60.29,28.16,65.14,30,70,31.88c.81.3,1.43.75,1.39,1.69s-.68,1.36-1.51,1.59Z"/></g></g></svg>