<svg xmlns="http://www.w3.org/2000/svg" viewBox="0 0 65.04 82.12"><defs><style>.cls-1{fill:#fff;}</style></defs><g id="Capa_2" data-name="Capa 2"><g id="Capa_3" data-name="Capa 3"><path class="cls-1" d="M33.16,0c2.1.69,4.19,1.4,6.29,2.07L57.22,7.72,57.9,8a2.52,2.52,0,0,1,1.56,2.63,2.48,2.48,0,0,1-2,2.22c-2.18.4-4.36.78-6.55,1.12-.59.09-.82.27-.79.9a38.12,38.12,0,0,1,0,4,7.92,7.92,0,0,1-.67,1.91,3,3,0,0,0-.29.93c0,2.89,0,5.78,0,8.66A3.38,3.38,0,0,1,46.79,34a.81.81,0,0,0-.42.56,14,14,0,0,1-5.13,9.05,1.48,1.48,0,0,0,.16,2.13C44.64,47.82,47.86,50,51.14,52a10.47,10.47,0,0,0,2.63.9,18.63,18.63,0,0,1,6.12,2.51A12.17,12.17,0,0,1,65,65.61c0,3.72,0,7.43,0,11.15a5.1,5.1,0,0,1-5.42,5.35q-27.06,0-54.13,0A5.13,5.13,0,0,1,0,76.71c0-.64,0-8,0-8.64,0-.89.49-2.28,1.23-2.27s1.14,2.82,1.17,3.68,0,6.73,0,7.45A2.7,2.7,0,0,0,5.3,79.71c1.68,0,3.36,0,5.12,0V75.32a6.47,6.47,0,0,1,0-.88,1.22,1.22,0,0,1,1.24-1.12,1.18,1.18,0,0,1,1.13,1.22c0,1.68,0,3.36,0,5.11H52.21c0-1.36,0-2.71,0-4.06,0-.32,0-.65,0-1a1.2,1.2,0,1,1,2.39,0c0,1.39,0,2.78,0,4.17v.91c2,0,3.82.08,5.68,0a2.53,2.53,0,0,0,2.3-2.57c0-4.2.11-8.4-.09-12.59A9.52,9.52,0,0,0,55.66,56c-1.35-.42-2.71-.82-4.08-1.17a1.51,1.51,0,0,0-1,.14q-8.36,4.92-16.66,9.91a2.3,2.3,0,0,1-2.71,0c-5.48-3.32-11-6.56-16.5-9.85a1.61,1.61,0,0,0-1.5-.18c-1.16.38-2.35.69-3.52,1a9.88,9.88,0,0,0-7.25,9.74c0,1.1,0,2.19,0,3.29,0,.73-.64,8.41-1.29,8.45S.06,69.76.05,69.06c0-2.58-.26-5.19.66-7.69A12.2,12.2,0,0,1,9,53.6c.94-.29,1.89-.58,2.85-.82a10.5,10.5,0,0,0,3.26-1.46c2.74-1.85,5.53-3.64,8.3-5.45a1.45,1.45,0,0,0,.18-2.51,14,14,0,0,1-4.86-8.69,1.09,1.09,0,0,0-.52-.75,3.25,3.25,0,0,1-2.24-3.34c0-2.88,0-5.77,0-8.66a5.25,5.25,0,0,0-.44-1.36A6.89,6.89,0,0,1,15,18.84c-.08-1.39,0-2.78,0-4.17,0-.22-.21-.6-.38-.63-1.8-.35-3.62-.64-5.51-1v5.5A15,15,0,0,1,11,20a1.86,1.86,0,0,1,.45,1.32c-.2,3.86.85,7.57,1.4,11.34a17.31,17.31,0,0,1,.24,1.74,2.59,2.59,0,0,1-2.51,2.77c-1.9.05-3.8.05-5.69,0A2.65,2.65,0,0,1,2.4,34c.48-2.9,1-5.78,1.46-8.69A25.72,25.72,0,0,0,4,21.76a2.65,2.65,0,0,1,2.56-2.9c0-2.09,0-4.19,0-6.3,0-.15-.16-.32-.27-.46A2.55,2.55,0,0,1,7.52,7.84l16-5.11,8-2.55A2.21,2.21,0,0,0,31.88,0ZM23.57,21.52c0,.82,0,1.64,0,2.46a3.82,3.82,0,0,1-3.8,3.76c-.45,0-.9,0-1.41,0,0,1.12-.06,2.15,0,3.18,0,.26.48.62.79.7,1.23.32,1.69.78,1.81,2a11.57,11.57,0,0,0,23.06.05c.13-1.29.55-1.72,1.83-2.06.31-.08.75-.45.77-.71.09-1,0-2.06,0-3.15H45.57a3.85,3.85,0,0,1-4.1-4.12c0-.69,0-1.37,0-2.11ZM17.37,19h30.3V14.17l-1-.17c-.34-.05-.69-.08-1-.12-6.62-.81-5.09-1.32-5-2.05s-.15-1,5.26-.32c.34,0,.69.08,1,.1a13.57,13.57,0,0,0,2.54.1c2.06-.26,4.11-.65,6.16-1,.46-.08.92-.2,1.38-.3a1.26,1.26,0,0,0-.6-.41Q44.73,6.28,33,2.58a1.93,1.93,0,0,0-1.14,0q-11.1,3.5-22.19,7c-.57.18-1.14.38-1.9.64a5.8,5.8,0,0,0,.71.26l5.05.84a11.91,11.91,0,0,0,2.92.39c2.71-.23,5.41-.63,8.11-1,4.24-.56,8.48-1.16,12.76-.39.92.16,4.58.66,5.5.78,5.27.68,3.45.72,3.36,1.38s-.39,1.25-1.15,1.22c-.27,0-5.66-.7-5.92-.72-2.58-.21-5.16-.55-7.74-.56a54.46,54.46,0,0,0-6.21.64c-2.59.31-5.18.65-7.81,1Zm9.21,26.3a20.4,20.4,0,0,0,.69,6.42c.05.18.36.36.58.4a28.66,28.66,0,0,0,9,.1A1.11,1.11,0,0,0,38,51.15c.07-.52.24-1,.29-1.57.13-1.38.22-2.77.34-4.32A14.22,14.22,0,0,1,26.58,45.32Zm22,8L40.83,48.2a27.83,27.83,0,0,1-4.17,12.2Zm-32.2,0,12,7.11A28.12,28.12,0,0,1,24.2,48.21ZM6.3,26a.68.68,0,0,0-.09.16c-.47,2.7-1,5.4-1.42,8.11-.09.52.25.55.63.54,1.55,0,3.09,0,4.64,0,.63,0,.72-.25.62-.78-.17-.89-.31-1.78-.46-2.68-.31-1.78-.62-3.56-.93-5.36ZM37,54.83H28.09l4.43,7.38ZM18.36,25.33c.55,0,1,0,1.45,0a1.29,1.29,0,0,0,1.31-1.17c.08-.86,0-1.74,0-2.63H18.36Zm25.53-3.81c0,.88,0,1.7,0,2.52a1.29,1.29,0,0,0,1.22,1.27,11.24,11.24,0,0,0,1.54,0v-3.8Zm-37.47,2H9.06V21.38H6.42Z"/></g></g></svg>