<svg xmlns="http://www.w3.org/2000/svg" viewBox="0 0 73.05 76.6"><defs><style>.cls-1{fill:#fff;}</style></defs><g id="Capa_2" data-name="Capa 2"><g id="Capa_3" data-name="Capa 3"><path class="cls-1" d="M73,43.69a7.42,7.42,0,0,1-2.25,3.62C64.48,53.78,58.22,60.24,52,66.76a11.78,11.78,0,0,1-9,3.84c-9.58,0-19.15,0-28.73,0h-1c0,.46,0,.88,0,1.29A4.56,4.56,0,0,1,8.5,76.59c-1.28,0-2.56,0-3.85,0A4.72,4.72,0,0,1,0,71.87q0-9.69,0-19.38a4.49,4.49,0,0,1,4.7-4.71c1.28,0,2.56,0,3.85,0a4.52,4.52,0,0,1,4.68,4.67v1.46c1.2,0,2.36-.07,3.51,0a2.61,2.61,0,0,0,2.33-1c1.24-1.41,2.57-2.73,3.9-4.06a11,11,0,0,1,10.54-3,24.07,24.07,0,0,0,7.52.35,5.23,5.23,0,0,1,5.46,7.28l.14.11A18.7,18.7,0,0,0,48.88,52c3.49-3.3,6.94-6.64,10.41-10,.79-.75,1.61-1.49,2.46-2.17A12,12,0,0,1,66,37.63a5.24,5.24,0,0,1,6.9,4.09A1.51,1.51,0,0,0,73,42ZM13.38,68.51l.5,0q15,0,29.93,0a8.57,8.57,0,0,0,6.38-2.72Q60.26,55.4,70.27,45A2.88,2.88,0,0,0,71,43.84a3.58,3.58,0,0,0-.77-3.59,3.15,3.15,0,0,0-3.35-.83,11.6,11.6,0,0,0-5.11,3.13q-5.43,5.14-10.8,10.36a10.64,10.64,0,0,1-7.08,3.25c-3.89.15-7.79.17-11.68.22-.73,0-1.14-.39-1.13-1s.41-1,1.17-1h6.63c1.14,0,2.28,0,3.41-.08a3,3,0,0,0,2.82-3.44,3.24,3.24,0,0,0-3.53-2.8,35.21,35.21,0,0,1-7.81-.28,19,19,0,0,0-4-.27,8.52,8.52,0,0,0-5.49,2.88,48.4,48.4,0,0,0-3.64,3.81,3.86,3.86,0,0,1-3.69,1.59,32.45,32.45,0,0,0-3.56,0ZM2,62.14c0,3.22,0,6.45,0,9.68a2.54,2.54,0,0,0,2.72,2.72H8.29c2,0,3-1,3-3v-19a2.57,2.57,0,0,0-2.76-2.82c-1.24,0-2.47,0-3.71,0A2.57,2.57,0,0,0,2,52.52Z"/><path class="cls-1" d="M.05,32.92A7.41,7.41,0,0,1,2.3,29.29Q11.71,19.6,21,9.84a11.81,11.81,0,0,1,9-3.84c9.57,0,19.15,0,28.73,0h1c0-.46,0-.87,0-1.29A4.56,4.56,0,0,1,64.55,0c1.28,0,2.56,0,3.84,0A4.73,4.73,0,0,1,73,4.73q0,9.69,0,19.38a4.49,4.49,0,0,1-4.7,4.71H64.49a4.53,4.53,0,0,1-4.68-4.68c0-.45,0-.9,0-1.45-1.2,0-2.36.06-3.51,0a2.58,2.58,0,0,0-2.33,1c-1.24,1.4-2.58,2.73-3.9,4.06a11,11,0,0,1-10.54,3A23.82,23.82,0,0,0,32,30.4a5.25,5.25,0,0,1-5.46-7.29L26.4,23a17.89,17.89,0,0,0-2.23,1.58c-3.5,3.29-6.94,6.63-10.42,9.94-.79.76-1.6,1.49-2.45,2.17A11.83,11.83,0,0,1,7.07,39a5.22,5.22,0,0,1-6.9-4.09,1.15,1.15,0,0,0-.12-.25ZM59.66,8.07l-.49,0q-15,0-29.94,0a8.59,8.59,0,0,0-6.37,2.72Q12.79,21.18,2.78,31.61a2.9,2.9,0,0,0-.7,1.13,3.58,3.58,0,0,0,.78,3.59,3.15,3.15,0,0,0,3.35.83A11.51,11.51,0,0,0,11.31,34c3.63-3.43,7.22-6.89,10.81-10.36a10.62,10.62,0,0,1,7.08-3.25c3.89-.15,7.79-.17,11.68-.22.73,0,1.14.4,1.12,1s-.4.95-1.16.95c-2.21,0-4.42,0-6.63,0-1.14,0-2.29,0-3.41.08A3,3,0,0,0,28,25.67a3.24,3.24,0,0,0,3.53,2.8,35.21,35.21,0,0,1,7.81.29,19.59,19.59,0,0,0,4,.26,8.55,8.55,0,0,0,5.49-2.88,50.3,50.3,0,0,0,3.64-3.81,3.84,3.84,0,0,1,3.68-1.59,32.48,32.48,0,0,0,3.56,0ZM71,14.44q0-4.83,0-9.68A2.53,2.53,0,0,0,68.32,2C67.13,2,66,2,64.76,2c-2,0-3,1-3,3q0,9.51,0,19a2.57,2.57,0,0,0,2.76,2.83c1.23,0,2.47,0,3.7,0A2.56,2.56,0,0,0,71,24.06C71,20.85,71,17.65,71,14.44Z"/></g></g></svg>