<svg xmlns="http://www.w3.org/2000/svg" viewBox="0 0 96.3 140.62"><defs><style>.cls-1{fill:#fff;}</style></defs><g id="Capa_2" data-name="Capa 2"><g id="Capa_4" data-name="Capa 4"><path class="cls-1" d="M38.28,106.22a2.71,2.71,0,0,0,1.1-3.72c-1.12-2-2.42-3.86-3.51-5.87-1.26-2.32-3.5-4-3.82-7-.1-.91-1.57-1.67-2.42-2.49-.3-.3-.93-.63-.9-.86.41-2.41-1.42-3.83-2.34-5.65S24.82,77.11,24,75.36s-1.57-3.27-2.3-4.93a39.17,39.17,0,0,0-1.65-3.93c-1-1.74-2.28-3.35-3.43-5a24.39,24.39,0,0,1-2.94-4.39c-1.42-3.52-3.53-6.16-7.15-7.57A26.36,26.36,0,0,1,2,47c-.37-.24-.47-1-.53-1.54,0-.11.77-.23,1.07-.48s1.11-1,1-1.21A7.07,7.07,0,0,0,1.82,40.9C.7,40,1,39.45,1.86,38.65c-.2-.27-.4-.54-.62-.8a4.11,4.11,0,0,1,.2-6.07c1.37-1.42,2.7-2.89,4.12-4.26a20.23,20.23,0,0,1,2.33-1.65c.24,1.42.51,2.72.61,4,0,.21-.74.72-1.09.67-1.25-.17-1.1.45-.86,1.24a4.82,4.82,0,0,1,.2,1.74c1.06,1.22,1.56-.4,2.45-.63,1.2.29,2.05,1.72,3.61,1.17.16-.05.6.63.89,1,.86,1.07,1.06,2.69,2.89,2.94,1.21.16,1.57-.48,1.94-1.31.12-.27.07-.75.24-.83,2.36-1.1,1.79-3.56,2.56-5.38.53-1.24,1.08-2.48,1.72-3.67.13-.25.67-.28,1-.41-.13-1.2,1.6-3.33,3.36-4,2-.74,3.94-1.52,6-2.09,3.1-.88,5.36-2.95,7.49-5.14s4.45-4.46,4.35-8h1.47c.64-1-1.13-5.07-2.89-6.49,1.29.2,2.56.9,3.16-.73a3.08,3.08,0,0,1,.76.25,17.16,17.16,0,0,0,3.36,2.17c1.79.63,2.2,2.14,3,3.51a4.24,4.24,0,0,0,1.34,1.56c1.12.67,2.35,1.15,3.54,1.71.8.38,1.48,2.21,1.16,3.43l2.32,1,1,2c-.88,1.45-.65,2.2,1.31,2.55a19.19,19.19,0,0,0,5.51.08c1-.12,1.9-1.06,2.91-1.4a2.45,2.45,0,0,1,2,.1,3.11,3.11,0,0,0,4.13.26,1.77,1.77,0,0,1,1.51,0c2.06,1.12,4.07,2.34,6.22,3.6L81.89,28.8c.48.25,1,.76,1.3.65,2.44-.89,2.64,1.78,4,2.49.13.06.19.45.12.64s-.37.19-.56.17c-.75-.09-1.79.47-2-.89,0-.1-.63-.13-1-.14a5.57,5.57,0,0,0-1.53,0,3.28,3.28,0,0,0-1.55.76,2.58,2.58,0,0,1-2.3,1.06,13,13,0,0,0-2.11.27,16,16,0,0,0-7.09,2.58,15.5,15.5,0,0,0-1.88,1.67,1.9,1.9,0,0,1-.59.44c-.54.21-1.45.21-1.61.56a18.09,18.09,0,0,0-.7,3,3.74,3.74,0,0,1-.57,1.74,3.88,3.88,0,0,0-1,3.8c.18,1,.29,1.84-1.07,2.38a11.55,11.55,0,0,0-3.09,2.36c-1.07,1-.9,2.1-.2,3.18-.62.4-1.31.61-1.57,1.07-.69,1.19-.1,2,1,2.61.89.49.86.54.32,1.2a23.47,23.47,0,0,0,1.07,2.13c.83,1.31,1.71,2.59,2.62,3.84a27.7,27.7,0,0,1,1.85,2.26,2.37,2.37,0,0,1-.12,1.64,6.89,6.89,0,0,1-.83,1.36c1.41.25,2.74.41,4,.74,2.32.59,3.21,1.71,3.49,4,5,1.39,8.83-.57,12-4.41-.24,4.26-.45,8.07-.66,11.83a6.33,6.33,0,0,0,1.4.57c.89.13,2.14.56,2.64.14,1.27-1.06,2.44-.36,3.63-.25a1.63,1.63,0,0,1,1,.8c1.93,3.42,3.78,6.88,5.73,10.28.66,1.15-.24,1.93-.75,2.37A3.43,3.43,0,0,0,94,100.92a18.91,18.91,0,0,1,0,3,4.69,4.69,0,0,1-.67,1.34,12.93,12.93,0,0,1,1.18,3.34c.07.72-.79,1.56-1.29,2.29a37.12,37.12,0,0,0-2.21,3.19c-.21.4.12,1.18.38,1.7a8.69,8.69,0,0,0,1.18,1.46,3.26,3.26,0,0,0-1.4,4.5c.7,1.73,1.37,3.21,3.75,3.44-2.18,2.65-4.09,5-6.06,7.41,1.06,1.6.86,2.18-1.2,3-.3.12-.67.82-.57,1.05a2.77,2.77,0,0,1-.88,3.38c-.76.72-3.3.71-4.09.14-2-1.43-4-2.85-5.92-4.31a1.34,1.34,0,0,1-.55-.92c.06-1.7-1.12-2.23-2.37-2.9-1.59-.84-3.06-1.92-4.58-2.9a20.76,20.76,0,0,0-2-1.27c-1.84-.91-3.71-1.77-5.58-2.62-.68-.31-1.41-.51-2.11-.79a13.76,13.76,0,0,1-2-.88q-4.32-2.51-8.57-5.09a5.45,5.45,0,0,1-1-1.12c-.9-1-1.62-2.33-2.73-2.94a10.87,10.87,0,0,1-4.59-5.24A33.81,33.81,0,0,0,38.28,106.22Z"/></g></g></svg>