<svg xmlns="http://www.w3.org/2000/svg" viewBox="0 0 67.73 92.84"><defs><style>.cls-1{fill:#fff;}</style></defs><g id="Capa_2" data-name="Capa 2"><g id="Capa_3" data-name="Capa 3"><path class="cls-1" d="M58.55,92.84l-12-7.69c-.45-.29-.92-.57-1.36-.89A1.36,1.36,0,1,1,46.7,82c2.84,1.83,5.68,3.68,8.52,5.52l3.65,2.36c1-1.76,2-3.45,3-5.15.52-.92,1.4-1.85,1.4-2.78s-.86-1.82-1.47-2.63A4.7,4.7,0,0,1,61,75.14c.73-3.24,1.31-6.52,1.86-9.79a5.67,5.67,0,0,1,1.67-3.42c.51-.45.49-.87.08-1.41q-1.45-1.91-2.82-3.89a1.56,1.56,0,0,0-1.44-.75c-.51,0-1,0-1.54,0a2.24,2.24,0,0,1-2.59-2.53c0-1.08,0-2.15,0-3.47-1.89,2.21-4.21,1.3-6.33,1.34-1,0-1.56-.92-1.75-2.63-.76,0-1.54,0-2.32,0a2.2,2.2,0,0,1-2.3-1.09A2.13,2.13,0,0,1,44,45c.07-.09.13-.2.24-.37-1.13-1.36-2.24-2.74-3.4-4.08a2.37,2.37,0,0,1-.38-2.91c1.85-3.7,3.65-7.43,5.55-11.11a3,3,0,0,1,1.6-1.43c3.15-.93,6.35-1.74,9.54-2.52a18.3,18.3,0,0,1,2.78-.24C59.8,21,59.8,21,58.43,20.83c-2.19-.27-2.92-1.94-1.64-3.76L58,15.45c-1.87-.84-3.64-1.66-5.44-2.41-.18-.08-.58.11-.75.3a4,4,0,0,1-4,1.28,8,8,0,0,0-1.62-.17,2.67,2.67,0,0,1-2.25-1.29c-1.69-2.36-3.49-4.65-5.11-7.06-1.05-1.56-2.66-2.29-4.21-3.23.32.48.65,1,1,1.43a2.21,2.21,0,0,1-.13,3.12Q32.23,11,29,14.59a4.67,4.67,0,0,1-1.34.91c-2,1.05-4,2.06-6,3.13a2.35,2.35,0,0,0-.94,1c-.86,1.86-1.65,3.76-2.48,5.64a2.27,2.27,0,0,1-2.69,1.61c-1.8-.21-2.37-.65-2.64-2.19a.91.91,0,0,0-.81-.88c-.86-.17-1.7-.43-2.54-.67C7.25,22.49,6.79,20.87,8.44,19L6.23,17c-1.08,1.41-2.13,2.75-3.14,4.14-.1.15,0,.56.16.77,1,1.45,2,2.87,3,4.3,1.58,2.24,1.45,3-.79,4.43.34,1,.92,1.5,2,1.19a6.38,6.38,0,0,1,1.08-.11,2.13,2.13,0,0,1,2.24,1Q13.95,38,17,43.15a1.35,1.35,0,0,1-.33,2,1.4,1.4,0,0,1-2-.61q-2.8-4.66-5.57-9.35c-.3-.51-.63-.79-1.22-.62-2.34.65-3.71-.4-4.81-2.4s-.93-3,1.14-4.07L1.91,24.78l-1-1.48C-.3,21.67-.29,21.06.9,19.5l3.31-4.32c1.09-1.4,2.31-1.52,3.64-.35.77.68,1.53,1.37,2.3,2,1.55,1.36,1.67,2,.69,3.83.65.16,1.27.37,1.91.48,1.64.28,2.79,1,2.94,2.92.11-.22.25-.42.35-.65.8-1.82,1.54-3.67,2.41-5.46a3.6,3.6,0,0,1,1.37-1.47c1.73-1,3.51-1.91,5.31-2.76a9.26,9.26,0,0,0,3.2-2.45c1.58-1.87,3.24-3.67,4.9-5.53-.47-.68-.93-1.31-1.37-2A2.16,2.16,0,0,1,32.93.37,3.67,3.67,0,0,1,36.82.8a17.06,17.06,0,0,1,4.91,4.74c1.24,1.89,2.67,3.66,4,5.52a1.78,1.78,0,0,0,1.33.77,3.45,3.45,0,0,0,3.5-1,2.2,2.2,0,0,1,2.82-.41c2,.94,4.09,1.81,6.12,2.74a2.18,2.18,0,0,1,.94,3.56l-1,1.47c.38,0,.64.06.9.1a2.17,2.17,0,0,1,2,1.82c.2.86.37,1.72.53,2.58a2,2,0,0,1-2,2.49c-4.24-.3-8,1.58-12,2.38a1.19,1.19,0,0,0-.67.64c-1.68,3.35-3.33,6.71-5,10.06a.87.87,0,0,0,.17,1.11c1,1.14,1.92,2.34,2.93,3.47a2.48,2.48,0,0,1,.54,3c2,.05,4.18-.26,4.16,2.65a4,4,0,0,0,4.17-1.25,2,2,0,0,1,3.3,0,3.13,3.13,0,0,1,.49,1.59c.07,1.36,0,2.72,0,4.08,0,.06,0,.11.12.3.45,0,1,0,1.45,0a3.85,3.85,0,0,1,3.33,1.7c1,1.41,2,2.79,3,4.19,1.17,1.63,1.17,3.06-.21,4.51a5.52,5.52,0,0,0-1.27,3.1c-.59,3.21-1.22,6.41-1.79,9.63a1.71,1.71,0,0,0,.2,1.08c.62,1.1,1.3,2.17,2,3.25a2.37,2.37,0,0,1,0,2.64C64.22,86,62.67,88.78,61,91.5a6.88,6.88,0,0,1-1.4,1.34Z"/><path class="cls-1" d="M16.54,42.32c.37.58,3.29,5.66,3.52,6C23.63,54.23,27.24,60.06,30.63,66c.71,1.25.7,3,.82,4.49A3,3,0,0,0,33,73.15c2.63,1.61,5.19,3.33,7.78,5,.22.15.44.32.67.46C50.34,84,51,85.43,50.6,86s-1.3,1.55-10.67-5.2c-1.12-.82-2.34-1.5-3.5-2.26-1.78-1.15-3.54-2.32-5.33-3.44a4.6,4.6,0,0,1-2.29-3.7c0-.27,0-.54,0-.82A10.49,10.49,0,0,0,27,65.11c-3.12-5-6.09-10-9.08-15-.27-.45-4.52-7.69-4.8-8.09S16.05,42.78,16.54,42.32Z"/></g></g></svg>