<svg xmlns="http://www.w3.org/2000/svg" viewBox="0 0 103.27 144.14"><defs><style>.cls-1{fill:#fff;}</style></defs><g id="Capa_2" data-name="Capa 2"><g id="Capa_4" data-name="Capa 4"><path class="cls-1" d="M51.92,0C55.28,2.2,58.63,4.41,62,6.58a2,2,0,0,0,1.21.06c3.45-.41,6.89-.81,10.33-1.28a1.61,1.61,0,0,1,1.8.92Q78,10.69,80.75,15a3.31,3.31,0,0,0,1.56,1.25c3.25,1.18,6.54,2.3,9.83,3.37a1.44,1.44,0,0,1,1.19,1.44q.48,5.33,1.13,10.64a3,3,0,0,0,.82,1.52q3.66,3.69,7.43,7.3a1.44,1.44,0,0,1,.4,1.82c-1.2,3.21-2.38,6.42-3.47,9.66a3.75,3.75,0,0,0,0,2.25c1.08,3.24,2.27,6.45,3.47,9.65a1.46,1.46,0,0,1-.4,1.82q-3.76,3.6-7.41,7.33a3.34,3.34,0,0,0-.86,1.79c-.43,3.49-.73,7-1.19,10.48a2,2,0,0,1-1.13,1.29c-3.25,1.19-6.56,2.24-9.82,3.42a3.32,3.32,0,0,0-1.56,1.24c-1.82,2.83-3.59,5.71-5.32,8.61a1.67,1.67,0,0,1-2,1c-3.33-.5-6.69-.88-10-1.19a3.82,3.82,0,0,0-2.21.53c-2.92,1.78-5.8,3.63-8.66,5.51a1.37,1.37,0,0,1-1.76,0c-2.87-1.87-5.74-3.73-8.67-5.51a3.86,3.86,0,0,0-2.2-.52q-5.12.48-10.2,1.2a1.5,1.5,0,0,1-1.77-.9c-1.71-2.85-3.43-5.7-5.26-8.49a4.42,4.42,0,0,0-1.95-1.6c-3.12-1.15-6.27-2.21-9.44-3.21a1.7,1.7,0,0,1-1.35-1.79c-.3-3.45-.68-6.91-1.11-10.35A2.94,2.94,0,0,0,8,73.06Q4.32,69.36.57,65.74a1.44,1.44,0,0,1-.41-1.82c1.22-3.24,2.41-6.5,3.53-9.78a3.3,3.3,0,0,0,0-2C2.56,48.87,1.37,45.61.16,42.37a1.46,1.46,0,0,1,.4-1.83C3,38.21,5.44,35.86,7.79,33.43a4,4,0,0,0,1-2.14c.45-3.44.81-6.89,1.12-10.35.07-.85.52-1.06,1.19-1.29,3.2-1.07,6.4-2.13,9.56-3.31a4.31,4.31,0,0,0,2-1.57c1.8-2.74,3.52-5.54,5.18-8.37a1.76,1.76,0,0,1,2-1c3.29.45,6.6.87,9.91,1.2A3.82,3.82,0,0,0,42,6.13c3-1.85,6-3.8,9-5.73a1.51,1.51,0,0,0,.35-.4ZM15.21,53.13A36.43,36.43,0,1,0,51.65,16.69,36.42,36.42,0,0,0,15.21,53.13Z"/><path class="cls-1" d="M39,144.06c-.81-.64-1.63-1.25-2.42-1.89-4.14-3.3-8.31-6.58-12.4-9.95a4,4,0,0,0-3.07-.92c-5.75.38-11.51.69-17.27,1-.46,0-.93,0-1.61,0,3.83-12,7.63-23.86,11.44-35.76a4.63,4.63,0,0,1,3.68,2.33c2,3.46,4.16,6.79,6.22,10.2a1.53,1.53,0,0,0,1.78.88q6.2-.85,12.42-1.49a4.08,4.08,0,0,1,2.34.53c2.58,1.54,5.07,3.2,7.61,4.81.54.34.9.61.64,1.43-3.08,9.48-6.1,19-9.14,28.48A2.53,2.53,0,0,1,39,144.06Z"/><path class="cls-1" d="M101,132.31c-.53,0-.9,0-1.26,0-5.85-.32-11.7-.62-17.55-1a4.17,4.17,0,0,0-3.19,1c-4.5,3.69-9.06,7.29-13.61,10.91-.36.29-.73.56-1.26,1l-9.51-29.72c3.11-2,6.16-4,9.28-5.88a3.39,3.39,0,0,1,1.91-.07c4,.47,8.1,1,12.14,1.51a1.43,1.43,0,0,0,1.67-.83c2-3.33,4.15-6.58,6.07-10a4.72,4.72,0,0,1,3.87-2.61C93.38,108.42,97.19,120.3,101,132.31Z"/><path class="cls-1" d="M79.6,53.11a28,28,0,1,1-28-28.06A27.95,27.95,0,0,1,79.6,53.11Z"/></g></g></svg>