<svg xmlns="http://www.w3.org/2000/svg" viewBox="0 0 226.3 226.17"><defs><style>.cls-1{fill:#263168;}.cls-2{fill:#fff;}</style></defs><g id="Capa_2" data-name="Capa 2"><g id="Capa_1-2" data-name="Capa 1"><path class="cls-1" d="M226.3,113.48a1.92,1.92,0,0,1-.4,1.2,12.7,12.7,0,0,1-1,1.2l-4.6,4.6c-3.2,3.2-6.4,6.3-9.5,9.5-8.2,8.2-16.5,16.4-24.7,24.6-4.6,4.5-9.1,9.1-13.7,13.6-5.8,5.7-11.5,11.5-17.3,17.2l-16.3,16.3L119,221.48l-3.3,3.3a6.36,6.36,0,0,1-.9.79,2.71,2.71,0,0,1-3.4,0c-.1-.1-.3-.2-.4-.29l-.9-.9-16.7-16.7c-6.8-6.8-13.7-13.71-20.5-20.5-5.5-5.5-11-10.9-16.4-16.4-6-6-12-12-18.1-18L18.6,133l-17-17a10.1,10.1,0,0,1-1.3-1.6,1.82,1.82,0,0,1,0-2,4.35,4.35,0,0,0,.4-.7,5,5,0,0,1,.7-.8l8.7-8.7c1.7-1.7,3.4-3.3,5-5l34.7-34.7c6.6-6.6,13.2-13.2,19.7-19.8,5.9-5.9,11.8-11.9,17.8-17.8,7.4-7.4,14.7-14.81,22.1-22.1l1.4-1.4a11.34,11.34,0,0,1,1.2-1,2.07,2.07,0,0,1,2.4,0,11.34,11.34,0,0,1,1.2,1c2.4,2.4,4.8,4.8,7.2,7.3l9.6,9.6,19.2,19.2,14.2,14.2,42.9,42.89,15.8,15.81,1,1,.6.89A10,10,0,0,1,226.3,113.48Zm-104.2,81.4.8-.8c4.7-4.8,9.5-9.6,14.2-14.4,9.1-9.2,18.2-18.5,27.3-27.7,2.8-2.8,5.5-5.6,8.3-8.4.1-.1.4-.3.4-.5-.4-.5-15.7-15.6-16.2-15.9a6,6,0,0,0-.8.8c-8.2,8.4-16.3,16.8-24.5,25.1-2.3,2.3-4.6,4.7-6.8,7-.1.1-.3.4-.5.4l-.4-.4-2.1-2.1c-8.5-8.4-17.1-16.8-25.6-25.2L59.1,96.28c-2.7-2.7-5.5-5.4-8.2-8.1-.2-.1-.3-.3-.5-.4l-.6.6c-3.7,3.8-7.5,7.6-11.2,11.5-1.9,2-3.8,3.9-5.8,5.9-.2.2-.4.3-.4.6C62.2,135.68,92.1,165.28,122.1,194.88Zm-51-96.5,1.5-1.5,1.5-1.5,1.5-1.5,1.5-1.5,1.5-1.5,1.5-1.5,1.5-1.5,1.5-1.5,1.5-1.5,1.5-1.5,1.5-1.5,1.5-1.5,1.5-1.5,1.5-1.5,1.5-1.5,1.5-1.5,1.5-1.5,1.5-1.5,1.5-1.5,1.5-1.5,1.5-1.5c.5-.5.9-1,1.5-1.5l.4.4,12.6,12.6c6.2,6.2,12.4,12.4,18.6,18.5,5.3,5.2,10.5,10.5,15.8,15.7L171.9,133c1.7,1.7,3.5,3.4,5.2,5.2l.5.5.5-.5c4.5-4.5,8.9-9,13.4-13.5l3.8-3.8c.2-.2.4-.3.4-.6l-.6-.6-37.4-37.4-28.5-28.5-11.5-11.5c-2-2-4-4-5.9-6l-4.7-4.7c-.2-.2-.3-.4-.6-.5-17,17.1-34.1,34.1-51.1,51.2-.1.1-.1.2-.2.3.1.1.1.2.2.2C60.4,87.78,65.7,93,71.1,98.38Z"/><path class="cls-2" d="M122.1,194.88q-45-44.4-89.8-88.7c.1-.3.3-.4.4-.6,1.9-2,3.8-3.9,5.8-5.9,3.7-3.8,7.5-7.6,11.2-11.5l.6-.6c.2.2.4.3.5.4,2.7,2.7,5.5,5.4,8.2,8.1l37.1,36.5c8.5,8.4,17.1,16.8,25.6,25.2l2.1,2.1.4.4a.66.66,0,0,0,.5-.4c2.3-2.3,4.6-4.7,6.8-7,8.2-8.4,16.3-16.8,24.5-25.1l.8-.8c.4.3,15.8,15.4,16.2,15.9a.66.66,0,0,1-.4.5c-2.8,2.8-5.5,5.6-8.3,8.4-9.1,9.2-18.2,18.5-27.3,27.7-4.7,4.8-9.5,9.6-14.2,14.4C122.7,194.28,122.4,194.48,122.1,194.88Z"/><path class="cls-2" d="M71.1,98.38,55.2,82.48l-.2-.2c.1-.1.1-.2.2-.3,17-17.1,34.1-34.1,51.1-51.2.3.1.4.3.6.5l4.7,4.7c2,2,4,4,5.9,6L129,53.48,157.5,82l37.4,37.4.6.6c-.1.3-.3.4-.4.6l-3.8,3.8c-4.5,4.5-8.9,9-13.4,13.5l-.5.5-.5-.5c-1.7-1.7-3.5-3.4-5.2-5.2l-20.4-20.4c-5.3-5.2-10.5-10.5-15.8-15.7-6.2-6.2-12.4-12.4-18.6-18.5l-12.6-12.6-.4-.4a10.63,10.63,0,0,0-1.5,1.5l-1.5,1.5-1.5,1.5-1.5,1.5-1.5,1.5-1.5,1.5-1.5,1.5-1.5,1.5-1.5,1.5-1.5,1.5-1.5,1.5-1.5,1.5-1.5,1.5-1.5,1.5-1.5,1.5-1.5,1.5-1.5,1.5-1.5,1.5-1.5,1.5-1.5,1.5-1.5,1.5A7.49,7.49,0,0,1,71.1,98.38Z"/></g></g></svg>