<svg xmlns="http://www.w3.org/2000/svg" viewBox="0 0 1736.43 1312.43"><defs><style>.cls-1{fill:#263168;}.cls-2{fill:#fff;}.cls-3,.cls-4{fill:#494849;}.cls-4{stroke:#494849;stroke-miterlimit:10;stroke-width:2px;}</style></defs><g id="Capa_2" data-name="Capa 2"><g id="Capa_1-2" data-name="Capa 1"><path class="cls-1" d="M1377,509.47a8.78,8.78,0,0,1-1.79,5.39,49.53,49.53,0,0,1-4.69,5.62c-6.88,6.95-13.85,13.83-20.78,20.73q-21.43,21.33-42.88,42.66-55.53,55.32-111,110.66-30.78,30.66-61.54,61.35-38.88,38.77-77.73,77.56l-73.35,73.2L894,995.6q-7.38,7.36-14.76,14.71a48.52,48.52,0,0,1-3.89,3.57,12,12,0,0,1-15.19-.07c-.61-.49-1.18-1-1.74-1.57-1.41-1.36-2.82-2.72-4.2-4.1l-75-74.92-92.21-92.13-73.94-73.86q-40.62-40.56-81.24-81.1-44.56-44.49-89.15-89l-76.51-76.28a32.62,32.62,0,0,1-5.77-7,8.76,8.76,0,0,1-.11-8.95,18.42,18.42,0,0,1,2-2.93,43.08,43.08,0,0,1,3.12-3.5q19.65-19.63,39.32-39.24,11.32-11.29,22.65-22.6,78-77.93,156-155.85,44.43-44.43,88.8-88.9,39.93-40,79.84-80,49.65-49.78,99.28-99.59c2.07-2.08,4.08-4.23,6.23-6.22a46.18,46.18,0,0,1,5.2-4.28,8.81,8.81,0,0,1,10.7,0A42,42,0,0,1,879,6.49q16.34,16.26,32.56,32.62,21.54,21.63,43.09,43.26l86.25,86.47q31.93,32,63.87,64,96.51,96.54,193,193.08,35.51,35.49,71,70.95c1.52,1.52,3,3.06,4.42,4.7a29.27,29.27,0,0,1,2.63,3.87A7.86,7.86,0,0,1,1377,509.47ZM908.24,875.17l3.67-3.74,63.89-64.79,122.85-124.58q18.64-18.91,37.29-37.85c.66-.67,1.59-1.18,1.73-2.25-1.87-2.31-70.83-70.1-72.76-71.48a37.55,37.55,0,0,0-3.5,3.42q-55.15,56.51-110.29,113-15.39,15.75-30.77,31.5c-.65.67-1.15,1.58-2.27,1.78-.66-.62-1.31-1.21-1.94-1.82l-9.41-9.26L791.43,595.68,624.66,431.6l-37-36.44c-.68-.66-1.42-1.27-2.26-2-1,1-1.81,1.77-2.62,2.59l-50.51,51.61q-12.94,13.22-25.87,26.44c-.73.74-1.69,1.34-1.95,2.59Q706.18,675.63,908.24,875.17Zm-229.63-434,6.88-6.9,6.81-6.9,6.61-6.67,6.8-6.9,6.6-6.68,6.82-6.89,6.6-6.68,6.81-6.89,6.61-6.68,6.81-6.89,6.61-6.67,6.6-6.69q3.39-3.45,6.8-6.89l6.61-6.68c2.28-2.29,4.54-4.59,6.81-6.89l6.61-6.68,6.81-6.89,6.61-6.68,6.81-6.89,6.6-6.69c2.27-2.29,4.52-4.61,6.82-6.88a89.65,89.65,0,0,1,6.77-6.56c.73.69,1.38,1.27,2,1.88q28.38,28.28,56.77,56.58l83.59,83.32,70.91,70.67,91.89,91.63q11.64,11.61,23.29,23.21c.68.68,1.4,1.31,2.24,2.09.9-.88,1.67-1.62,2.42-2.37q30.09-30.33,60.17-60.65,8.47-8.55,17-17.1a6,6,0,0,0,2-2.63c-1-1-1.91-1.94-2.87-2.9L1067.64,367.59q-64.14-64.15-128.27-128.33l-51.88-51.92q-13.4-13.4-26.75-26.81-10.49-10.5-21-21a6.53,6.53,0,0,0-2.57-2.08L607.32,367.61a13.52,13.52,0,0,0-.94,1.18,6.79,6.79,0,0,0,.68,1C630.81,393.51,654.57,417.21,678.61,441.19Z"/><path class="cls-2" d="M908.24,875.17Q706,675.46,504.41,476.38c.26-1.25,1.22-1.85,1.95-2.59q12.92-13.25,25.87-26.44l50.51-51.61c.81-.82,1.65-1.63,2.62-2.59.84.74,1.58,1.35,2.26,2l37,36.44L791.43,595.68l115.3,113.45,9.41,9.26c.63.61,1.28,1.2,1.94,1.82,1.12-.2,1.62-1.11,2.27-1.78q15.4-15.73,30.77-31.5,55.14-56.52,110.29-113a37.55,37.55,0,0,1,3.5-3.42c1.93,1.38,70.89,69.17,72.76,71.48-.14,1.07-1.07,1.58-1.73,2.25q-18.63,18.94-37.29,37.85L975.8,806.64l-63.89,64.79Z"/><path class="cls-2" d="M678.61,441.19c-24-24-47.8-47.68-71.55-71.39a6.79,6.79,0,0,1-.68-1,13.52,13.52,0,0,1,.94-1.18L837.21,137.47a6.53,6.53,0,0,1,2.57,2.08q10.5,10.47,21,21,13.37,13.41,26.75,26.81l51.88,51.92q64.13,64.17,128.27,128.33l168.15,168.16c1,1,1.91,1.93,2.87,2.9a6,6,0,0,1-2,2.63q-8.46,8.57-17,17.1-30.09,30.32-60.17,60.65c-.75.75-1.52,1.49-2.42,2.37-.84-.78-1.56-1.41-2.24-2.09q-11.65-11.59-23.29-23.21l-91.89-91.63L968.78,433.8l-83.59-83.32q-28.38-28.31-56.77-56.58c-.62-.61-1.27-1.19-2-1.88a89.65,89.65,0,0,0-6.77,6.56c-2.3,2.27-4.55,4.59-6.82,6.88l-6.6,6.69L799.42,319l-6.61,6.68L786,332.61l-6.61,6.68c-2.27,2.3-4.53,4.6-6.81,6.89L766,352.86q-3.4,3.43-6.8,6.89l-6.6,6.69L746,373.11,739.15,380l-6.61,6.68-6.81,6.89-6.6,6.68-6.82,6.89-6.6,6.68-6.8,6.9-6.61,6.67-6.81,6.9Z"/><path class="cls-3" d="M0,1068.41H55.3V1074H42.08a6.28,6.28,0,0,0-4.64,1.52A6.66,6.66,0,0,0,36,1080.3V1167q0,3.12,1.89,4.43t7.61,1.29H62.2q13.35,0,21.85-8.21T96.41,1136h5.64l-2.74,42.29H0v-5.58H9.75c3.34,0,5.67-.58,7-1.74s2-3,2-5.61v-85.84a5.1,5.1,0,0,0-1.69-4.16,7.66,7.66,0,0,0-5-1.41H0Z"/><path class="cls-3" d="M109.39,1068.41h55.06V1074h-11c-3,0-5,.44-6.21,1.34a4.78,4.78,0,0,0-1.77,4.08v62.06q0,9.73,1.85,14.71a22.76,22.76,0,0,0,10,11.74q7.27,4.39,19,4.39,16.26,0,24.79-7.77t8.54-20.77v-50.46a38.55,38.55,0,0,0-1-10.14,12.57,12.57,0,0,0-2.9-5.39,11.43,11.43,0,0,0-4.8-2.86c-1.93-.62-5.16-.93-9.67-.93v-5.58h45.06V1074h-3.22q-7.59,0-11.29,3.75t-3.71,10.89v54q0,17.68-11,27.12-12.33,10.63-32.81,10.63-17.73,0-27.89-4.64t-14.75-13.35q-3.47-6.6-3.47-16.64v-66.37a4.72,4.72,0,0,0-1.89-4c-1.25-1-3.14-1.45-5.65-1.45H109.39Z"/><path class="cls-3" d="M245.14,1068.41h61.58q13.71,0,23.3,4.46,11.93,5.66,20.27,18.8t8.35,31.14a68.51,68.51,0,0,1-5,26.76,42.74,42.74,0,0,1-11.65,16,51.44,51.44,0,0,1-19.14,10.25q-8.48,2.54-22.58,2.53H245.14v-5.58h11.28c2.85,0,4.82-.42,5.93-1.26a4.64,4.64,0,0,0,1.65-3.94V1079a4.43,4.43,0,0,0-1.77-3.68,7.92,7.92,0,0,0-4.92-1.37H245.14Zm43.2,5.58q-3.61,0-5.36,1.41a5.15,5.15,0,0,0-1.73,4.24v87.69a4.58,4.58,0,0,0,2,4.05c1.34.92,3.62,1.37,6.85,1.37h10.15q13.64,0,23.86-6.46a27.07,27.07,0,0,0,10.16-12.11q4.75-10.56,4.76-29.14,0-27.49-10.4-40.28Q319.79,1074,301.89,1074Z"/><path class="cls-3" d="M378.71,1068.41h94.47l2.26,37.09H470Q466.81,1088,459.86,1081t-18.15-7H418.36a5.9,5.9,0,0,0-4.27,1.41,5.8,5.8,0,0,0-1.44,4.31v39.16h10.2q8.2,0,13.31-5.42t5.51-16.65h5.56v50.91h-5.56q-.41-12.63-5.59-18.1T422,1124.15h-9.32v43.7a4.21,4.21,0,0,0,1.73,3.64q1.72,1.26,5.75,1.26h18.44q30,0,34.61-35.37H479l-2,40.95H378.71v-5.58h8.14c3.17,0,5.4-.5,6.69-1.52a5.29,5.29,0,0,0,1.94-4.42v-87.1a5.29,5.29,0,0,0-1.7-4.31q-1.69-1.41-5.32-1.41h-9.75Z"/><path class="cls-3" d="M493.9,1068.41h28.46l71.9,86.36v-62.5q0-9.43-4.67-14-4.27-4.17-12.74-4.31v-5.58H618.6V1074c-4.26,0-7.45.54-9.55,1.63a13.85,13.85,0,0,0-5.51,6,19.46,19.46,0,0,0-2.35,9.44v87.32h-7.57l-74.41-89.91v66.34q0,9,4.92,13.42t15.24,4.57v5.58H493.9v-5.58q8.55-.29,13.54-5.15a16,16,0,0,0,5-11.91v-74.44l-1.42-1.43c-2.68-2.7-4.59-4.3-5.71-4.79a14.77,14.77,0,0,0-6-1H493.9ZM583.7,1038h2.74q-.08,7.88-4.67,12.45a15.43,15.43,0,0,1-11.29,4.57q-5,0-16.52-3.87-8.48-2.75-11.37-2.75-6,0-8,6.62h-2.74q1.7-16.8,16-16.8,5.33,0,15.32,3.27,10.15,3.35,12.65,3.34Q581.61,1044.85,583.7,1038Z"/><path class="cls-3" d="M679.36,1066.11h5.39l42.76,100.55q2.58,6.09,10.56,6.09h3.71v5.58H694.22v-5.58H698q7.41,0,10.48-1.48a3.39,3.39,0,0,0,2.09-3.2,7.31,7.31,0,0,0-.56-2.67l-9.86-23.34H653l-5.54,13.38a24.24,24.24,0,0,0-2.17,8.47q0,3.64,3.67,6.24t10.68,2.6h4v5.58H620.46v-5.58q6.93,0,11-2.78t7.41-10.59ZM677,1087.29l-21.41,49h42.11Z"/><path class="cls-3" d="M826.23,1066.11h5.4l42.75,100.55q2.58,6.09,10.56,6.09h3.71v5.58H841.09v-5.58h3.79c4.94,0,8.44-.49,10.48-1.48a3.37,3.37,0,0,0,2.09-3.2,7.11,7.11,0,0,0-.56-2.67L847,1142.06H799.87l-5.53,13.38q-2.18,5.36-2.18,8.47,0,3.64,3.67,6.24t10.68,2.6h4v5.58H767.33v-5.58q6.93,0,11-2.78t7.42-10.59Zm-2.35,21.18-21.41,49h42.11Z"/><path class="cls-3" d="M895.58,1068.41h62.15q18.3,0,28,7.43t9.71,18.63a21.25,21.25,0,0,1-6.77,15.89q-6.78,6.54-20.4,10.32,16.86,3.28,25.28,10.31a22.13,22.13,0,0,1,8.42,17.74,23.35,23.35,0,0,1-4.8,14.5q-4.79,6.33-16,10.71a68.75,68.75,0,0,1-25.35,4.39h-60.3v-5.58h9.84c3,0,5.12-.44,6.49-1.33a3.73,3.73,0,0,0,2.05-3.05V1080.3a5.68,5.68,0,0,0-2-4.72,9.37,9.37,0,0,0-5.89-1.59H895.58Zm35.63,50.46h22.57q10.41,0,16.57-5.63t6.17-18.48q0-7.93-2.95-12.39a16.73,16.73,0,0,0-8.54-6.49q-5.61-2-19.39-2-9.75,0-12.09,1.3t-2.34,4.56Zm0,5.58v42.36a5.31,5.31,0,0,0,1.9,4.46q1.89,1.49,6.81,1.48h14.43q14.34,0,21.2-5.83t6.85-18.17q0-11.3-7.09-17.8t-19.59-6.5Z"/><path class="cls-3" d="M1070.19,1066.11a57.3,57.3,0,0,1,28.25,7.32,52.81,52.81,0,0,1,20.64,20.44,62.36,62.36,0,0,1,0,59.19,53.57,53.57,0,0,1-20.6,20.62,55.63,55.63,0,0,1-27.77,7.4,53,53,0,0,1-26.92-7.25,53.92,53.92,0,0,1-20.2-20.73,59.73,59.73,0,0,1-7.62-29.91,58.35,58.35,0,0,1,7.38-29.25,53.71,53.71,0,0,1,20.19-20.44A52.78,52.78,0,0,1,1070.19,1066.11Zm1.29,5.72q-15.72,0-25.48,12t-9.75,39.24q0,29.51,10,40.8t24.75,11.3a32.31,32.31,0,0,0,18.14-5.13q7.81-5.13,12.45-16.28t4.64-29.28q0-19.77-4.35-30.88t-12.42-16.46A31.82,31.82,0,0,0,1071.48,1071.83Z"/><path class="cls-3" d="M1228.19,1077.1l6.6-11h5.4l3,43.85h-5.24q-6-18.92-14.26-27.37-10.47-10.75-24-10.76a33,33,0,0,0-18.6,5.42q-8.22,5.43-12.6,16.27T1164.1,1124q0,19.08,4.38,29.85t12.12,15.86a32.2,32.2,0,0,0,18.12,5.09q14.08,0,21.77-7.29t7.69-18.8v-10.33a4.27,4.27,0,0,0-2-3.79c-1.37-.89-3.62-1.34-6.73-1.34h-10.08v-5.2h50v5.2h-6.77c-3,0-5.16.49-6.45,1.45a4.94,4.94,0,0,0-1.94,4.2v42h-5.32q-2.89-9.81-6-18.8a41,41,0,0,1-14.39,13.71,38.67,38.67,0,0,1-18.9,4.57,56.71,56.71,0,0,1-27.94-7.13,52.4,52.4,0,0,1-20.31-20.11,61.42,61.42,0,0,1,0-58.75,56.17,56.17,0,0,1,20.52-20.66q13-7.65,26.32-7.65a44.42,44.42,0,0,1,14.47,2.35Q1219.49,1070.82,1228.19,1077.1Z"/><path class="cls-3" d="M1321.5,1066.11h5.4l42.75,100.55q2.58,6.09,10.56,6.09h3.71v5.58h-47.56v-5.58h3.79c4.94,0,8.44-.49,10.48-1.48a3.38,3.38,0,0,0,2.1-3.2,7.13,7.13,0,0,0-.57-2.67l-9.86-23.34h-47.16l-5.53,13.38q-2.17,5.36-2.18,8.47,0,3.64,3.67,6.24t10.68,2.6h4v5.58H1262.6v-5.58q6.93,0,11-2.78t7.42-10.59Zm-2.35,21.18-21.4,49h42.1Z"/><path class="cls-3" d="M1388.68,1068.41h61.58q13.71,0,23.3,4.46,11.93,5.66,20.27,18.8t8.35,31.14a68.51,68.51,0,0,1-5,26.76,42.74,42.74,0,0,1-11.65,16,51.44,51.44,0,0,1-19.14,10.25q-8.48,2.54-22.57,2.53h-55.14v-5.58H1400q4.27,0,5.93-1.26a4.64,4.64,0,0,0,1.65-3.94V1079a4.43,4.43,0,0,0-1.77-3.68,7.9,7.9,0,0,0-4.92-1.37h-12.17Zm43.21,5.58q-3.63,0-5.37,1.41a5.15,5.15,0,0,0-1.73,4.24v87.69a4.58,4.58,0,0,0,2,4.05c1.34.92,3.62,1.37,6.85,1.37h10.16q13.62,0,23.86-6.46a27,27,0,0,0,10.15-12.11q4.76-10.56,4.76-29.14,0-27.49-10.4-40.28-8.87-10.77-26.76-10.77Z"/><path class="cls-3" d="M1574.65,1066.11a57.3,57.3,0,0,1,28.25,7.32,52.74,52.74,0,0,1,20.64,20.44,62.36,62.36,0,0,1,0,59.19,53.57,53.57,0,0,1-20.6,20.62,55.63,55.63,0,0,1-27.77,7.4,53,53,0,0,1-26.92-7.25,53.92,53.92,0,0,1-20.2-20.73,59.73,59.73,0,0,1-7.61-29.91,58.34,58.34,0,0,1,7.37-29.25A53.71,53.71,0,0,1,1548,1073.5,52.78,52.78,0,0,1,1574.65,1066.11Zm1.29,5.72q-15.72,0-25.48,12t-9.75,39.24q0,29.51,10,40.8a31.73,31.73,0,0,0,24.74,11.3,32.31,32.31,0,0,0,18.14-5.13q7.82-5.13,12.45-16.28t4.64-29.28q0-19.77-4.35-30.88t-12.42-16.46A31.82,31.82,0,0,0,1575.94,1071.83Z"/><path class="cls-3" d="M1716.2,1076.74l7.25-9.59h5.89l.48,40.06h-5.32q-5-18.43-14.79-26.91a33.47,33.47,0,0,0-22.53-8.47q-10.65,0-17.41,5.88a18.29,18.29,0,0,0-6.77,14.36,16.65,16.65,0,0,0,2.57,9.26,18.51,18.51,0,0,0,7.7,6.47q5.12,2.49,19.3,5.3,19.92,4,27.94,8.08a29.67,29.67,0,0,1,12,10.29,26.51,26.51,0,0,1,4,14.53,31.75,31.75,0,0,1-10.84,24.64q-10.85,9.77-28,9.77-18.46,0-32.09-11l-9.1,10.26h-5.81v-42.59h5.81q3.38,17.63,15.15,27.8t26.52,10.18q11.93,0,19.47-6.5t7.54-15.8a15.6,15.6,0,0,0-2.83-9.25q-2.82-4-8.94-6.69t-24.11-6.57q-19.74-4.32-26.92-9.67-10.08-7.57-10.08-21.47,0-14.49,10-23.75t25.67-9.25a41.67,41.67,0,0,1,14.27,2.45A51.17,51.17,0,0,1,1716.2,1076.74Z"/><path class="cls-4" d="M333.42,1254.86l-6.36,1.61a13.71,13.71,0,0,0-4.21-6.73,9.6,9.6,0,0,0-6.31-2.47,7.92,7.92,0,0,0-6.11,2.54,9.55,9.55,0,0,0-2.36,6.79,15,15,0,0,0,2.52,7.83c1,1.71,3.54,4.36,7.5,8q6.18,5.58,8.63,10.41a20.85,20.85,0,0,1,2.45,9.45,18.32,18.32,0,0,1-2.68,9.43,19.59,19.59,0,0,1-7.21,7.14,18.94,18.94,0,0,1-9.61,2.61,16.49,16.49,0,0,1-11.19-4.12q-4.74-4.12-6.79-12.08l6.22-2.11q1.47,6,4.76,9a11.07,11.07,0,0,0,7.6,2.93,11.35,11.35,0,0,0,8.42-3.61,12.29,12.29,0,0,0,3.52-8.93,15.82,15.82,0,0,0-2-7.59q-2-3.72-7.8-8.93-6.23-5.67-8.1-8.69a20.07,20.07,0,0,1-3.07-10.62,15.46,15.46,0,0,1,4.51-11.42,15.2,15.2,0,0,1,11.19-4.51,15.46,15.46,0,0,1,10,3.57Q331.36,1247.86,333.42,1254.86Z"/><path class="cls-4" d="M368.8,1258.66a23.05,23.05,0,0,1,11.67,3,21.46,21.46,0,0,1,8.28,8.46,25.06,25.06,0,0,1,3,12.29,29,29,0,0,1-3.8,14.53,26.92,26.92,0,0,1-10.21,10.37,28.69,28.69,0,0,1-14.5,3.66q-10,0-16.5-6.57t-6.48-16.73A29.4,29.4,0,0,1,344,1273a27.69,27.69,0,0,1,10.41-10.55A28.26,28.26,0,0,1,368.8,1258.66Zm-.16,6.09a22.38,22.38,0,0,0-11.2,3,20.43,20.43,0,0,0-8.06,8.17,23.68,23.68,0,0,0-2.82,11.47q0,7.88,4.86,12.79a16.85,16.85,0,0,0,12.55,4.92,21.08,21.08,0,0,0,10.88-2.86,20.61,20.61,0,0,0,7.77-8.26,24.24,24.24,0,0,0,2.88-11.58,19,19,0,0,0-2.15-9.18,15.39,15.39,0,0,0-6.09-6.22A17.27,17.27,0,0,0,368.64,1264.75Z"/><path class="cls-4" d="M409,1240.72h6.23l-9.29,69h-6.28Z"/><path class="cls-4" d="M429.4,1259.94h6.4l-3,20.84a111.9,111.9,0,0,0-1.33,11.65,12.06,12.06,0,0,0,12.75,12.64,13.08,13.08,0,0,0,8.3-2.75,15,15,0,0,0,5-7.18,71.86,71.86,0,0,0,1.8-10.3l3.37-24.9H469l-2.42,18.86q-1.74,13.53-3.67,19.22a19,19,0,0,1-6.9,9.34,19.82,19.82,0,0,1-12.1,3.66,17.82,17.82,0,0,1-13.31-5.29,18.1,18.1,0,0,1-5.18-13.2,55.56,55.56,0,0,1,.57-7.36l.46-4.4.25-1.88Z"/><path class="cls-4" d="M529.62,1270.7l-5.26,3.06q-5.54-9-16.92-9a25,25,0,0,0-12,2.93A22,22,0,0,0,483.85,1287a19.26,19.26,0,0,0,2.29,9.42,15.67,15.67,0,0,0,6.42,6.41,20.13,20.13,0,0,0,9.76,2.24,27.22,27.22,0,0,0,11-2.28,21.18,21.18,0,0,0,8.16-5.91l5.27,3.71a31.55,31.55,0,0,1-10.74,7.89,33.56,33.56,0,0,1-13.43,2.5q-11.81,0-18.42-6.43t-6.61-17.14a27.37,27.37,0,0,1,8.67-20.34,29.32,29.32,0,0,1,21.26-8.45,27.16,27.16,0,0,1,13.32,3.18A21.84,21.84,0,0,1,529.62,1270.7Z"/><path class="cls-4" d="M542.81,1259.94h6.05l-6.51,49.8h-6.28Zm5-20.5a5.13,5.13,0,0,1,3.62,8.77,5.13,5.13,0,0,1-7.25-7.26A4.88,4.88,0,0,1,547.83,1239.44Z"/><path class="cls-4" d="M585.32,1258.66a23.05,23.05,0,0,1,11.67,3,21.52,21.52,0,0,1,8.28,8.46,25.17,25.17,0,0,1,3,12.29,29,29,0,0,1-3.79,14.53,27.06,27.06,0,0,1-10.21,10.37,28.73,28.73,0,0,1-14.51,3.66q-10,0-16.5-6.57t-6.47-16.73a29.3,29.3,0,0,1,3.8-14.69A27.69,27.69,0,0,1,571,1262.48,28.26,28.26,0,0,1,585.32,1258.66Zm-.16,6.09a22.35,22.35,0,0,0-11.2,3,20.52,20.52,0,0,0-8.07,8.17,23.68,23.68,0,0,0-2.82,11.47q0,7.88,4.86,12.79a16.87,16.87,0,0,0,12.56,4.92,21.1,21.1,0,0,0,10.88-2.86,20.52,20.52,0,0,0,7.76-8.26,24.13,24.13,0,0,0,2.89-11.58,19.14,19.14,0,0,0-2.15-9.18,15.35,15.35,0,0,0-6.1-6.22A17.23,17.23,0,0,0,585.16,1264.75Zm8.71-28.15h9.84l-15.52,14.1h-6.31Z"/><path class="cls-4" d="M624.18,1259.94h6.14l-1,7.75q7.61-9,17.67-9,7.74,0,12.47,4.74t4.74,12.74a92.78,92.78,0,0,1-1,10.76l-3.09,22.84h-6.28l3.09-22.84a89.76,89.76,0,0,0,1-10.81,11.52,11.52,0,0,0-3.17-8.45,11.17,11.17,0,0,0-8.32-3.21,18.32,18.32,0,0,0-16.13,9.68q-2.38,4.46-3.67,14.11l-2.85,21.52h-6.28Z"/><path class="cls-4" d="M749.93,1309.74h-6.45l1-7.72q-8.85,9-19.93,9-10.08,0-16.57-6.55t-6.49-16.84A28,28,0,0,1,710,1267.2a27.14,27.14,0,0,1,19.92-8.54,22,22,0,0,1,10.88,2.61,22.21,22.21,0,0,1,8,8.15l3.81-28.7h6.64Zm-24.52-4.58a22.18,22.18,0,0,0,11.24-2.91,20.85,20.85,0,0,0,8-8.34,24.35,24.35,0,0,0,3-11.85,17,17,0,0,0-4.89-12.59q-4.89-4.86-12.7-4.86a21.22,21.22,0,0,0-15.71,6.64,22.33,22.33,0,0,0-6.53,16.29q0,7.92,4.89,12.77C716,1303.54,720.21,1305.16,725.41,1305.16Z"/><path class="cls-4" d="M816.25,1286.12H771.86q-.15,8.88,4.62,14t12.67,5.08a22.31,22.31,0,0,0,9.75-2.15,20,20,0,0,0,7.42-6l4.76,3.89a25.84,25.84,0,0,1-9.45,7.39A29.14,29.14,0,0,1,789,1311q-11.71,0-17.6-7.26a25.22,25.22,0,0,1-5.88-16.31,28.21,28.21,0,0,1,4-14.28,28.54,28.54,0,0,1,25-14.51,21.11,21.11,0,0,1,15.84,6.48q6.27,6.48,6.27,16.5A39.17,39.17,0,0,1,816.25,1286.12Zm-5.86-5.58a16,16,0,0,0-4.81-11.39,15.78,15.78,0,0,0-11.39-4.36A21.6,21.6,0,0,0,781,1269a22.52,22.52,0,0,0-8.08,11.55Z"/><path class="cls-4" d="M904.57,1270.7l-5.26,3.06q-5.53-9-16.91-9a25,25,0,0,0-12,2.93A21.93,21.93,0,0,0,858.81,1287a19.15,19.15,0,0,0,2.29,9.42,15.67,15.67,0,0,0,6.42,6.41,20.1,20.1,0,0,0,9.76,2.24,27.22,27.22,0,0,0,11-2.28,21.18,21.18,0,0,0,8.16-5.91l5.26,3.71a31.42,31.42,0,0,1-10.73,7.89,33.59,33.59,0,0,1-13.43,2.5q-11.81,0-18.42-6.43t-6.62-17.14a27.34,27.34,0,0,1,8.68-20.34,29.29,29.29,0,0,1,21.25-8.45,27.11,27.11,0,0,1,13.32,3.18A21.71,21.71,0,0,1,904.57,1270.7Z"/><path class="cls-4" d="M941.51,1258.66a23.05,23.05,0,0,1,11.67,3,21.46,21.46,0,0,1,8.28,8.46,25.17,25.17,0,0,1,3,12.29,29,29,0,0,1-3.8,14.53,27.06,27.06,0,0,1-10.21,10.37,28.73,28.73,0,0,1-14.51,3.66q-10,0-16.49-6.57T913,1287.72a29.4,29.4,0,0,1,3.8-14.69,27.69,27.69,0,0,1,10.41-10.55A28.26,28.26,0,0,1,941.51,1258.66Zm-.16,6.09a22.38,22.38,0,0,0-11.2,3,20.52,20.52,0,0,0-8.07,8.17,23.67,23.67,0,0,0-2.81,11.47q0,7.88,4.85,12.79a16.87,16.87,0,0,0,12.56,4.92,21.08,21.08,0,0,0,10.88-2.86,20.61,20.61,0,0,0,7.77-8.26,24.24,24.24,0,0,0,2.88-11.58,19.14,19.14,0,0,0-2.15-9.18A15.35,15.35,0,0,0,950,1267,17.21,17.21,0,0,0,941.35,1264.75Z"/><path class="cls-4" d="M980.37,1259.94h6.14l-1,7.75q7.59-9,17.67-9,7.73,0,12.46,4.74t4.74,12.74a92.78,92.78,0,0,1-1,10.76l-3.09,22.84H1010l3.09-22.84a89.76,89.76,0,0,0,1-10.81,11.48,11.48,0,0,0-3.17-8.45,11.17,11.17,0,0,0-8.32-3.21,18.35,18.35,0,0,0-16.13,9.68q-2.38,4.46-3.66,14.11l-2.85,21.52h-6.28Z"/><path class="cls-4" d="M1045.4,1241.32h6.27l-2.48,18.62h10l-.74,5.59h-10l-5.89,44.21h-6.41l6-44.21h-8.54l.78-5.59h8.52Z"/><path class="cls-4" d="M1066.73,1259.94h6.42l-.87,6.27a18.61,18.61,0,0,1,6.19-5.56,15.27,15.27,0,0,1,7.42-2,14.17,14.17,0,0,1,5.64,1.28l-3,5.86a11.11,11.11,0,0,0-4-1,11.32,11.32,0,0,0-6.6,2.33,16.53,16.53,0,0,0-5.3,6.8q-2,4.47-3.44,14.67l-2.92,21.1H1060Z"/><path class="cls-4" d="M1120,1258.66a23.05,23.05,0,0,1,11.67,3,21.55,21.55,0,0,1,8.29,8.46,25.17,25.17,0,0,1,3,12.29,29,29,0,0,1-3.8,14.53,27,27,0,0,1-10.2,10.37,28.73,28.73,0,0,1-14.51,3.66q-10,0-16.5-6.57t-6.47-16.73a29.4,29.4,0,0,1,3.79-14.69,27.78,27.78,0,0,1,10.42-10.55A28.22,28.22,0,0,1,1120,1258.66Zm-.16,6.09a22.38,22.38,0,0,0-11.2,3,20.5,20.5,0,0,0-8.06,8.17,23.68,23.68,0,0,0-2.82,11.47q0,7.88,4.86,12.79a16.87,16.87,0,0,0,12.55,4.92,21.08,21.08,0,0,0,10.88-2.86,20.48,20.48,0,0,0,7.77-8.26,24.25,24.25,0,0,0,2.89-11.58,19,19,0,0,0-2.16-9.18,15.26,15.26,0,0,0-6.09-6.22A17.27,17.27,0,0,0,1119.83,1264.75Z"/><path class="cls-4" d="M1152.81,1259.94h6.58l12.57,36.33,20.94-36.33h6.95l-28.69,49.8H1170Z"/><path class="cls-4" d="M1255.55,1286.12h-44.39q-.14,8.88,4.62,14t12.68,5.08a22.29,22.29,0,0,0,9.74-2.15,19.9,19.9,0,0,0,7.42-6l4.76,3.89a25.84,25.84,0,0,1-9.45,7.39,29.14,29.14,0,0,1-12.61,2.77q-11.71,0-17.6-7.26a25.22,25.22,0,0,1-5.88-16.31,28.93,28.93,0,0,1,28.93-28.79,21.1,21.1,0,0,1,15.83,6.48q6.27,6.48,6.27,16.5A39.17,39.17,0,0,1,1255.55,1286.12Zm-5.86-5.58a16,16,0,0,0-4.8-11.39,15.81,15.81,0,0,0-11.4-4.36,21.6,21.6,0,0,0-13.16,4.2,22.45,22.45,0,0,0-8.07,11.55Z"/><path class="cls-4" d="M1269.15,1259.94h6.42l-.87,6.27a18.61,18.61,0,0,1,6.19-5.56,15.27,15.27,0,0,1,7.42-2,14.17,14.17,0,0,1,5.64,1.28l-3,5.86a11.11,11.11,0,0,0-4-1,11.32,11.32,0,0,0-6.6,2.33,16.53,16.53,0,0,0-5.3,6.8q-2,4.47-3.44,14.67l-2.91,21.1h-6.29Z"/><path class="cls-4" d="M1323.06,1265.53l-3.47,5.17q-4.21-6-10-6a8,8,0,0,0-5.63,2.15,6.38,6.38,0,0,0-2.33,4.76,6.21,6.21,0,0,0,1.41,3.85q1.38,1.83,6.27,5,7.14,4.62,9.43,8a14.42,14.42,0,0,1,2.24,8,13.65,13.65,0,0,1-4.37,10.39,15.93,15.93,0,0,1-11.37,4.12q-9.26,0-15.57-8.19l3.89-4.54q5.54,6.74,12,6.73a9.08,9.08,0,0,0,6.46-2.61,8.1,8.1,0,0,0,2.75-6,8.46,8.46,0,0,0-2.06-5.35q-1.34-1.65-7.14-5.59-6.27-4.31-8.24-7.14a10.69,10.69,0,0,1-2-6.31,12.42,12.42,0,0,1,4.17-9.43,14.83,14.83,0,0,1,10.53-3.89,15.19,15.19,0,0,1,6.8,1.51A19.33,19.33,0,0,1,1323.06,1265.53Z"/><path class="cls-4" d="M1335.05,1259.94h6l-6.5,49.8h-6.28Zm5-20.5a5.13,5.13,0,0,1,3.61,8.77,5.13,5.13,0,0,1-7.25-7.26A4.89,4.89,0,0,1,1340.08,1239.44Z"/><path class="cls-4" d="M1397.56,1309.74h-6.46l1-7.49q-8.62,8.76-19.75,8.77-10.12,0-16.64-6.55t-6.51-16.84a28,28,0,0,1,8.49-20.43,27.32,27.32,0,0,1,20-8.54,22.11,22.11,0,0,1,10.92,2.61,20.91,20.91,0,0,1,7.9,8.13l1.15-9.46h6.64Zm-24.51-4.58a22.08,22.08,0,0,0,11.22-2.91,20.86,20.86,0,0,0,8-8.36,24.39,24.39,0,0,0,3-11.86,17,17,0,0,0-4.88-12.57q-4.87-4.85-12.68-4.85a21.17,21.17,0,0,0-15.68,6.64,22.32,22.32,0,0,0-6.52,16.29q0,7.92,4.88,12.77T1373.05,1305.16Z"/><path class="cls-4" d="M1442.24,1265.53l-3.48,5.17q-4.21-6-10-6a8.06,8.06,0,0,0-5.64,2.15,6.41,6.41,0,0,0-2.33,4.76,6.16,6.16,0,0,0,1.42,3.85q1.37,1.83,6.27,5,7.14,4.62,9.42,8a14.42,14.42,0,0,1,2.25,8,13.66,13.66,0,0,1-4.38,10.39,15.92,15.92,0,0,1-11.37,4.12q-9.26,0-15.57-8.19l3.89-4.54q5.55,6.74,12,6.73a9.06,9.06,0,0,0,6.46-2.61,8.1,8.1,0,0,0,2.75-6,8.46,8.46,0,0,0-2.06-5.35c-.89-1.1-3.26-3-7.14-5.59q-6.27-4.31-8.24-7.14a10.69,10.69,0,0,1-2-6.31,12.42,12.42,0,0,1,4.17-9.43,14.85,14.85,0,0,1,10.53-3.89,15.19,15.19,0,0,1,6.8,1.51A19.46,19.46,0,0,1,1442.24,1265.53Z"/></g></g></svg>